<svg width="159" height="161" viewBox="0 0 159 161" fill="none" xmlns="http://www.w3.org/2000/svg">
<path d="M157.642 71.4576C151.894 67.0142 145.919 62.8654 139.74 59.0275C142.288 51.373 144.388 43.5801 146.03 35.6874C146.074 35.4788 146.073 35.2632 146.025 35.0553C145.977 34.8474 145.885 34.6521 145.754 34.4827C145.71 34.4158 145.662 34.352 145.609 34.2914L131.626 19.1314C131.485 18.8579 131.262 18.634 130.987 18.4902C130.713 18.3465 130.4 18.2899 130.092 18.3282C122.9 19.2199 115.759 20.4725 108.696 22.0812C105.098 14.9924 101.095 8.1113 96.7068 1.47103C96.5974 1.1543 96.3794 0.885334 96.0904 0.710713C95.8015 0.536093 95.4598 0.46681 95.1246 0.514865L69.9647 4.08615C69.6748 4.00664 69.3676 4.0137 69.0817 4.10644C68.7958 4.19917 68.5442 4.37343 68.3584 4.60726C65.0005 8.89088 61.8942 13.157 59.0395 17.4055C51.7443 15.0808 44.3274 13.1466 36.8214 11.6112C36.4275 11.5306 36.0173 11.6076 35.6808 11.8254C35.3443 12.0431 35.1089 12.3839 35.0263 12.7729C35.0263 12.8016 35.0263 12.8207 35.0263 12.8446L20.0707 32.2739C19.808 32.4206 19.5954 32.6413 19.4602 32.9078C19.3249 33.1743 19.273 33.4746 19.311 33.7703C19.9916 39.1121 20.8368 44.2674 21.8464 49.2363C15.0589 52.6821 8.4642 56.4868 2.09102 60.6338C1.89581 60.7601 1.733 60.9295 1.61544 61.1286C1.49788 61.3277 1.42879 61.5512 1.41364 61.7812C1.36638 61.9104 1.33866 62.0457 1.33138 62.1828L0.00080801 91.7379C-0.0101491 92.0623 0.0906032 92.3808 0.286592 92.6414C0.482581 92.9019 0.762214 93.089 1.07978 93.1721C6.24079 97.137 11.3712 100.75 16.4709 104.01C15.0032 109.068 13.692 114.34 12.5372 119.825C12.4899 120.052 12.4962 120.287 12.5558 120.51C12.6154 120.734 12.7266 120.942 12.8807 121.116C12.9391 121.236 13.014 121.347 13.1033 121.446L33.2845 143.247C33.4197 143.396 33.5852 143.516 33.7702 143.598C33.9553 143.68 34.1557 143.724 34.3586 143.725C34.6141 143.726 34.865 143.658 35.0844 143.529C41.5227 142.738 47.6934 141.706 53.5963 140.431C56.1413 145.008 58.9492 149.629 62.02 154.295C62.2328 154.62 62.5666 154.848 62.949 154.931C63.1262 155.086 63.3413 155.193 63.5731 155.242L88.2492 160.371H88.3944C88.7035 160.507 89.0496 160.536 89.3775 160.455C89.7054 160.373 89.9964 160.186 90.2039 159.922C95.3198 153.434 100.041 146.65 104.342 139.608C109.887 141.227 115.693 142.662 121.76 143.911C122.372 143.864 122.973 143.722 123.541 143.49L144.627 129.793C144.668 129.766 144.706 129.735 144.743 129.702C145.06 129.583 145.327 129.363 145.503 129.076C145.678 128.789 145.751 128.453 145.711 128.12C144.692 119.988 143.188 111.923 141.206 103.967C146.257 101.252 151.36 98.2239 156.515 94.8837C156.689 94.7703 156.838 94.6227 156.952 94.4499C157.066 94.2772 157.143 94.0831 157.178 93.8797C157.2 93.7872 157.213 93.6927 157.216 93.5976L158.184 73.0735C158.271 72.7817 158.266 72.4705 158.169 72.1817C158.072 71.8929 157.889 71.6402 157.642 71.4576ZM154.565 72.9158C152.468 75.5484 150.359 78.087 148.236 80.5316C144.536 75.6679 140.75 71.1564 136.876 66.9971C137.524 65.3525 138.143 63.6505 138.748 61.9629C143.99 65.233 149.262 68.8839 154.565 72.9158ZM119.167 107.185C119.549 105.903 119.893 104.641 120.212 103.398C121.898 100.959 123.356 98.3733 124.567 95.6725C124.717 98.0629 124.808 100.511 124.828 102.992C122.954 104.464 121.067 105.862 119.167 107.185ZM124.818 106.812C124.818 107.381 124.794 107.945 124.779 108.514C122.98 109.274 121.189 109.996 119.409 110.665C121.218 109.451 123.009 108.16 124.818 106.812ZM79.3368 121.824C71.0618 121.825 62.9724 119.401 56.0915 114.859C49.2106 110.317 43.8474 103.861 40.68 96.3072C37.5127 88.7534 36.6834 80.4412 38.2972 72.4218C39.911 64.4023 43.8953 57.0358 49.7463 51.2538C55.5972 45.4719 63.0521 41.5342 71.168 39.9387C79.2839 38.3432 87.6964 39.1616 95.3416 42.2903C102.987 45.4191 109.521 50.7177 114.119 57.5161C118.716 64.3145 121.17 72.3074 121.17 80.4838C121.17 91.4478 116.762 101.963 108.916 109.715C101.07 117.468 90.4281 121.824 79.3319 121.824H79.3368ZM112.824 116.13C111.237 120.101 109.395 124.115 107.298 128.173C104.1 127.962 100.979 127.647 97.9358 127.245C100.323 124.737 102.56 122.201 104.647 119.639C105.46 119.099 106.258 118.53 107.066 117.923L107.642 117.64C109.348 117.178 111.074 116.675 112.819 116.13H112.824ZM96.1746 124.706C95.5456 125.376 94.9117 126.04 94.2392 126.7C93.8231 126.633 93.3973 126.571 92.9812 126.499C94.0844 125.916 95.1391 125.314 96.1697 124.706H96.1746ZM49.4642 120.308C50.0384 121.172 50.6287 122.036 51.2351 122.899C50.2674 122.899 49.2659 122.871 48.2691 122.847C47.7853 121.685 47.3014 120.528 46.8176 119.371C47.7175 119.691 48.5981 120.007 49.4642 120.308ZM45.3757 115.599C44.7048 113.77 44.0807 111.951 43.5033 110.144C44.529 112.146 45.6451 114.154 46.8515 116.168C46.3676 115.986 45.8789 115.785 45.3854 115.599H45.3757ZM54.1527 121.814C55.4107 122.182 56.6638 122.517 57.8928 122.832C56.9251 122.867 55.9413 122.893 54.9414 122.909C54.6752 122.541 54.4091 122.177 54.1527 121.814ZM67.4342 125.161C68.4842 125.366 69.5535 125.529 70.6324 125.639C73.1903 127.095 75.8515 128.496 78.6159 129.841C74.1548 131.61 69.447 133.204 64.4924 134.622C61.8635 131.715 59.4185 128.794 57.1574 125.859C60.6765 125.747 64.1054 125.505 67.4439 125.132L67.4342 125.161ZM77.5514 125.969H77.7643C79.7239 126.585 81.7463 127.159 83.8172 127.675C83.3333 127.891 82.8495 128.096 82.3657 128.306C80.7335 127.535 79.132 126.751 77.5611 125.954L77.5514 125.969ZM82.3657 131.577C83.9043 132.265 85.4623 132.939 87.0638 133.594C83.0124 137.196 78.6433 140.749 73.9564 144.255C71.4469 141.884 69.0583 139.494 66.7907 137.084C72.0814 135.534 77.2811 133.696 82.3657 131.577ZM86.1154 129.932C86.967 129.54 87.8137 129.148 88.646 128.742C89.6378 128.942 90.6442 129.134 91.6506 129.315C90.9539 129.994 90.2426 130.663 89.5265 131.338C88.3621 130.875 87.2186 130.4 86.0961 129.913L86.1154 129.932ZM38.6358 104.115C39.4728 107.39 40.4841 110.708 41.6405 114.06C39.318 113.068 36.981 111.993 34.6296 110.833C34.736 107.61 34.9376 104.46 35.2344 101.381C36.3343 102.327 37.4617 103.241 38.6164 104.12L38.6358 104.115ZM35.6263 97.7617C35.8343 96.055 36.0811 94.3721 36.352 92.718C36.6553 94.898 37.0456 97.1131 37.523 99.3633C36.8843 98.8374 36.2408 98.3068 35.6069 97.7665L35.6263 97.7617ZM47.0353 45.3925C47.5627 44.1591 48.124 42.9208 48.6998 41.6778C49.0626 41.5679 49.4304 41.4531 49.7932 41.3527C48.8094 42.7041 47.8837 44.0523 47.016 45.3973L47.0353 45.3925ZM50.4319 38.054C51.1932 36.5368 51.9883 35.0181 52.8173 33.4978C53.8333 33.5313 54.8446 33.5791 55.851 33.6317C54.7704 34.9066 53.7253 36.1815 52.7157 37.4563C51.9609 37.6428 51.1964 37.8436 50.4319 38.054ZM101.555 38.881C101.178 38.6372 100.8 38.403 100.418 38.1687C98.2164 36.4667 95.8601 34.7934 93.3828 33.1966C94.486 33.0962 95.6036 33.0149 96.7262 32.9337C98.4228 34.9098 100.034 36.8922 101.56 38.881H101.555ZM100.524 32.7424C103.711 32.6245 106.974 32.6102 110.313 32.6994C112.273 37.2385 113.991 41.8759 115.461 46.5925C113.612 45.8515 111.779 45.1583 109.954 44.5272C109.621 44.3264 109.282 44.1208 108.948 43.9296L108.861 43.8627C106.283 40.014 103.502 36.3022 100.529 32.7424H100.524ZM90.7023 30.4715C91.67 30.1273 92.6377 29.7831 93.6054 29.4532C93.8134 29.6779 94.0118 29.9026 94.215 30.1273C93.0489 30.2038 91.8732 30.3233 90.7023 30.4715ZM86.2074 28.9321C81.4657 26.3341 76.5755 24.0099 71.5614 21.9712C74.0097 19.7816 76.5789 17.6063 79.2739 15.4693C83.6285 19.2748 87.6605 23.1298 91.37 27.0341C89.6233 27.6031 87.896 28.2532 86.2074 28.913V28.9321ZM82.564 30.3998C80.7351 31.1743 78.9481 31.9711 77.203 32.7903C76.8256 32.8811 76.4386 32.9719 76.0612 33.0723H75.9547C71.4035 32.1659 66.807 31.4973 62.1845 31.0692C64.3489 28.7584 66.6504 26.4716 69.089 24.2087C73.6874 26.0304 78.1853 28.0906 82.564 30.3807V30.3998ZM67.2213 34.7026C66.8246 34.7839 66.4327 34.8699 66.0359 34.9655C63.2586 35.3002 60.4088 35.7639 57.5106 36.3663C58.2025 35.5392 58.9137 34.7217 59.6395 33.8994C62.2103 34.0938 64.7376 34.3552 67.2213 34.6835V34.7026ZM124.107 63.3876C123.385 61.9671 122.577 60.5909 121.688 59.2665C121.504 58.2434 121.31 57.2155 121.093 56.1876C123.912 58.5111 126.699 61.0227 129.453 63.7222C129.178 66.0505 128.849 68.3405 128.457 70.5732C127.054 68.0059 125.587 65.5868 124.107 63.3828V63.3876ZM121.165 52.363C124.126 53.7399 127.108 55.2538 130.111 56.9048C130.044 57.9183 129.961 58.9175 129.865 59.9167C127 57.2076 124.1 54.6881 121.165 52.3582V52.363ZM127.174 87.8415C127.383 87.2487 127.581 86.6463 127.779 86.0391C128.665 84.5045 129.536 82.9316 130.378 81.3205C132.142 85.3587 133.755 89.6136 135.216 94.0853C132.774 96.3769 130.319 98.541 127.852 100.578C127.745 96.4566 127.465 92.4598 127.01 88.5873C127.054 88.3531 127.116 88.1045 127.174 87.8415ZM127.871 104.426C130.668 102.195 133.443 99.8143 136.198 97.2837C136.708 98.9665 137.192 100.678 137.65 102.418C134.353 104.139 131.084 105.733 127.842 107.199C127.871 106.267 127.871 105.349 127.871 104.441V104.426ZM137.63 91.7666C136.055 87.0239 134.219 82.37 132.129 77.8257C133.348 75.3301 134.511 72.75 135.618 70.0855C139.208 74.0249 142.728 78.2735 146.18 82.8312C143.361 85.9897 140.511 88.973 137.63 91.7809V91.7666ZM134.568 64.5493C133.929 63.8896 133.295 63.2441 132.632 62.6083C132.782 61.2649 132.903 59.8976 133.014 58.5255C134.04 59.1087 135.061 59.7111 136.087 60.3278C135.589 61.7669 135.105 63.1772 134.568 64.5637V64.5493ZM137.098 57.4115C135.808 56.6466 134.531 55.904 133.266 55.1837C133.645 48.414 133.632 41.6285 133.227 34.8604C136.353 35.348 139.529 35.9137 142.754 36.5575C141.24 43.6068 139.352 50.5726 137.098 57.4259V57.4115ZM140.553 33.058C138.017 32.5799 135.508 32.1528 133.024 31.7767C132.844 29.2684 132.615 26.7186 132.337 24.1274L140.553 33.058ZM132.202 66.433L133.373 67.6569C132.65 69.4258 131.908 71.1596 131.147 72.8584C131.527 70.7612 131.879 68.6194 132.202 66.433ZM130.184 34.4014C130.582 40.7797 130.634 47.1744 130.339 53.5582C126.555 51.5534 122.805 49.7383 119.089 48.1128C117.581 42.9149 115.772 37.8069 113.67 32.8142C118.993 33.0914 124.489 33.6269 130.16 34.4205L130.184 34.4014ZM129.003 21.4932C129.407 24.827 129.729 28.1019 129.971 31.3178C123.913 30.4859 118.044 29.9552 112.364 29.7257C111.641 28.1066 110.888 26.4764 110.104 24.835C116.098 23.4931 122.389 22.3888 128.979 21.5218L129.003 21.4932ZM108.977 29.6588C105.242 29.5855 101.6 29.6461 98.0519 29.8405C97.631 29.3624 97.2197 28.8843 96.7891 28.4062C100.105 27.3768 103.527 26.4333 107.056 25.576C107.717 26.9274 108.358 28.2883 108.977 29.6588ZM94.873 4.17698C98.8036 10.201 102.412 16.4246 105.682 22.8222C101.844 23.7784 98.1341 24.827 94.5537 25.968C90.6346 21.78 86.3525 17.6366 81.7076 13.5379C85.8397 10.3506 90.233 7.23034 94.8876 4.17698H94.873ZM89.3572 4.25348C85.88 6.63433 82.5495 9.05821 79.3658 11.5251C77.4046 9.85183 75.3822 8.1881 73.2984 6.53393L89.3572 4.25348ZM69.8486 7.65743C72.3017 9.56976 74.658 11.4821 76.9417 13.4375C73.9613 15.8279 71.1227 18.2502 68.4261 20.7043C66.3488 19.9043 64.2247 19.1346 62.0539 18.3952C64.4731 14.835 67.0713 11.2574 69.8486 7.66221V7.65743ZM60.3169 20.9959C62.2522 21.6334 64.1376 22.3011 65.973 22.9991C63.2796 25.5489 60.7443 28.1401 58.367 30.7727C57.0767 30.6835 55.7736 30.6086 54.4575 30.548C56.2639 27.3831 58.217 24.2007 60.3169 21.0007V20.9959ZM37.7213 14.8813C44.608 16.3442 51.1464 18.0589 57.3364 20.0254C55.0784 23.5091 52.9818 26.9768 51.0464 30.4285C45.8854 30.3106 40.5712 30.4158 35.1037 30.7441C35.7456 25.5935 36.6182 20.3075 37.7213 14.886V14.8813ZM34.7505 33.7799C39.7857 33.4612 44.6774 33.3369 49.4255 33.407C48.4062 35.3384 47.4385 37.2635 46.5225 39.1822C42.3953 40.4491 38.2003 41.9599 33.9667 43.7097C34.1215 40.4683 34.3828 37.1599 34.7505 33.7847V33.7799ZM44.8096 42.8635C43.3581 46.1622 42.0421 49.4419 40.9389 52.6833C38.5874 54.2132 36.2488 55.853 33.9231 57.6028C33.7619 54.1574 33.7361 50.6228 33.8457 46.9989C37.5359 45.4595 41.1905 44.0937 44.8096 42.9017V42.8635ZM33.8022 19.1936C33.0861 23.2063 32.5006 27.125 32.0458 30.9496C29.4653 31.1472 26.8639 31.3895 24.2414 31.6763L33.8022 19.1936ZM33.3764 77.5197C32.8684 76.2719 32.3797 75.0098 31.8958 73.7285C32.0797 73.3938 32.2539 73.0592 32.4329 72.7293C32.7135 74.4217 33.0135 76.0185 33.3764 77.5675V77.5197ZM22.9786 85.4511C20.6981 82.9459 18.4401 80.3181 16.2048 77.5675C19.6175 73.9819 23.0625 70.6449 26.5397 67.5565C27.1848 69.5931 27.8606 71.5883 28.567 73.5421C26.5768 77.303 24.714 81.2727 22.9786 85.4511ZM24.0334 90.9873C26.7913 93.8335 29.5831 96.5028 32.4087 98.9952C32.0313 102.351 31.7684 105.797 31.62 109.331C27.788 107.343 23.9285 105.137 20.0416 102.715C21.2706 98.6542 22.6012 94.7434 24.0334 90.9825V90.9873ZM28.1218 62.2211C27.0864 58.5749 26.1494 54.8044 25.3107 50.9096C27.1348 50.0156 28.9444 49.1694 30.754 48.3662C30.6765 52.312 30.7524 56.1526 30.9814 59.888C30.0298 60.6402 29.0766 61.4163 28.1218 62.2163V62.2211ZM31.2572 63.5453C31.3878 65.0322 31.5378 66.5047 31.741 67.958C31.3394 68.6226 30.9523 69.3062 30.5604 69.9899C30.0443 68.4792 29.5476 66.9429 29.0702 65.3812C29.7863 64.7549 30.5217 64.1382 31.2572 63.5406V63.5453ZM31.6733 34.0046C31.2797 37.7559 31.0072 41.4292 30.8556 45.0244C28.8105 45.92 26.7526 46.865 24.6817 47.8594C23.8527 43.6778 23.1383 39.3591 22.5383 34.9034C25.6349 34.5257 28.6589 34.2341 31.6733 33.9998V34.0046ZM22.5093 52.3104C23.4189 56.4761 24.4462 60.4999 25.5913 64.382C21.798 67.6967 18.0418 71.2967 14.3226 75.1819C11.1679 71.1469 8.07617 66.868 5.04731 62.3453C10.9405 58.5844 16.7612 55.2378 22.5093 52.3056V52.3104ZM4.07962 66.3278C6.74399 70.213 9.45836 73.9102 12.2227 77.4193C9.15192 80.7372 6.11499 84.2431 3.11193 87.9371L4.07962 66.3278ZM4.01672 91.6662C7.34557 87.4527 10.7212 83.4941 14.1436 79.7906C16.6338 82.8599 19.1627 85.7778 21.7303 88.5443C20.1723 92.5347 18.7208 96.694 17.3757 101.022C12.963 98.1633 8.51002 95.0319 4.01672 91.6279V91.6662ZM19.1611 105.746C23.306 108.296 27.4251 110.613 31.5184 112.697C31.4555 115.599 31.4749 118.568 31.562 121.58C26.459 120.942 21.219 120.091 15.8419 119.027C16.8386 114.421 17.945 109.982 19.1611 105.707V105.746ZM18.0143 122.464C22.6754 123.334 27.2348 124.04 31.6926 124.582C31.8958 129.076 32.2571 133.685 32.7764 138.408L18.0143 122.464ZM32.8877 95.3426C30.3233 93.0128 27.7864 90.5284 25.2768 87.8893C26.7606 84.2177 28.3493 80.7021 30.0427 77.3428C31.3684 80.6894 32.7861 83.9308 34.3151 87.0097C33.7409 89.722 33.2587 92.4996 32.8684 95.3426H32.8877ZM34.3393 63.8131C34.2618 62.9716 34.1941 62.1207 34.1312 61.2649C35.544 60.1717 36.9617 59.1167 38.3842 58.1C36.9859 59.9215 35.6263 61.8195 34.3199 63.8131H34.3393ZM34.5328 114.136C37.3746 115.51 40.2018 116.762 43.0146 117.894C43.6145 119.491 44.2629 121.097 44.95 122.708C41.5792 122.546 38.1358 122.271 34.6199 121.886C34.528 119.266 34.4989 116.684 34.5328 114.136ZM36.0375 140.383C35.3924 135.086 34.9553 129.934 34.7263 124.926C38.6551 125.344 42.5001 125.629 46.2612 125.782C48.003 129.702 49.9384 133.663 52.0673 137.663C46.9386 138.743 41.5953 139.651 36.0375 140.388V140.383ZM49.6287 125.883C50.8996 125.905 52.1657 125.914 53.4269 125.911C55.8171 129.13 58.4234 132.326 61.2458 135.497C59.2524 136.018 57.2251 136.52 55.1639 136.984C53.1318 133.255 51.2867 129.556 49.6287 125.887V125.883ZM56.6735 139.747C59.0024 139.208 61.2829 138.633 63.5151 138.021C66.0182 140.717 68.6712 143.395 71.4743 146.053C68.9712 147.851 66.3907 149.626 63.7328 151.379C61.1942 147.462 58.8411 143.581 56.6735 139.737V139.747ZM66.7907 152.961C69.1664 151.379 71.484 149.777 73.7194 148.156C76.745 150.929 79.9303 153.674 83.2753 156.389L66.7907 152.961ZM88.7379 156.886C84.2865 153.415 80.1077 149.897 76.2015 146.33C81.2238 142.588 85.88 138.764 90.1701 134.856C93.7602 136.233 97.4858 137.519 101.347 138.714C97.479 144.989 93.2699 151.052 88.7379 156.877V156.886ZM102.948 136.051C99.4002 134.961 95.9601 133.796 92.628 132.557C93.5441 131.68 94.4424 130.802 95.323 129.922C98.7067 130.426 102.186 130.812 105.76 131.079C104.866 132.727 103.929 134.381 102.948 136.042V136.051ZM120.885 140.674C115.723 139.569 110.742 138.324 105.939 136.941C107.035 135.051 108.085 133.167 109.088 131.29C113.446 131.526 117.933 131.589 122.549 131.481C122.065 134.493 121.518 137.562 120.885 140.665V140.674ZM123.009 128.479C118.767 128.59 114.635 128.555 110.612 128.373C112.836 123.997 114.821 119.506 116.559 114.92C119.233 113.999 121.93 112.976 124.649 111.851C124.384 117.199 123.838 122.742 123.009 128.479ZM124.184 139.656C124.729 136.874 125.213 134.123 125.636 131.404C129.749 131.242 133.956 130.945 138.259 130.515L124.184 139.656ZM142.488 127.035C136.863 127.704 131.398 128.15 126.096 128.373C126.963 122.235 127.515 116.291 127.75 110.541C131.276 109.008 134.835 107.312 138.429 105.454C140.166 112.564 141.519 119.759 142.483 127.011L142.488 127.035ZM140.427 100.97C139.875 98.9394 139.296 96.9442 138.69 94.9841C141.838 91.9626 144.959 88.7419 148.052 85.322C149.917 87.8718 151.757 90.4997 153.573 93.2056C149.141 96.0263 144.759 98.6143 140.427 100.97ZM154.512 89.1897C153.063 87.0702 151.597 85.0097 150.114 83.0081C151.778 81.0958 153.433 79.1388 155.078 77.1372L154.512 89.1897Z" fill="#3F437E"/>
</svg>
